<?xml version="1.0" encoding="utf-8"?>
<!-- Generated by Mocodo 4.2.10 -->
<svg width="615" height="374" viewBox="0 0 615 374" xmlns="http://www.w3.org/2000/svg">
<rect x="0" y="0" width="615" height="374" fill="#f7f7f7" stroke="none" stroke-width="0"/>

<!-- Inheritance PERSONNE_PARENT_#1 -->
<g class="page_0_2ff0796f diagram_page" visibility="visible">
	<line x1="48" y1="170" x2="141" y2="170" stroke="#7fbc41" stroke-width="2"/>
	<polygon points="87 170 99 164 95 170 99 176" fill="#7fbc41" stroke-width="0"/>
	<line x1="141" y1="43" x2="141" y2="170" stroke="#7fbc41" stroke-width="2"/>
	<line x1="141" y1="314" x2="141" y2="170" stroke="#7fbc41" stroke-width="2"/>
	<g>
		<polygon points="141 144.6 119 182.7 163 182.7" stroke="#7fbc41" stroke-width="2" fill="#b8e186"/>
		<text x="133" y="175" fill="#000000" font-family="Verdana" font-size="12">XT</text>
	</g>
</g>

<!-- Association ENSEIGNER -->
<g class="page_0_2ff0796f diagram_page" visibility="visible">
	<line x1="141" y1="43" x2="267" y2="43" stroke="#7fbc41" stroke-width="2"/>
	<line x1="267" y1="170" x2="267" y2="43" stroke="#7fbc41" stroke-width="2"/>
	<g>
		<path d="M297 18 a14 14 90 0 1 14 14 V43 h-88 V32 a14 14 90 0 1 14 -14" fill="#b8e186" stroke="#b8e186" stroke-width="0"/>
		<path d="M311 43 v11 a14 14 90 0 1 -14 14 H237 a14 14 90 0 1 -14 -14 V43 H88" fill="#e6f5d0" stroke="#e6f5d0" stroke-width="0"/>
		<rect x="223" y="18" width="88" height="50" fill="none" rx="14" stroke="#7fbc41" stroke-width="2"/>
		<line x1="223" y1="43" x2="311" y2="43" stroke="#7fbc41" stroke-width="1"/>
		<text x="231" y="35.75" fill="#000000" font-family="Verdana" font-size="12">ENSEIGNER</text>
	</g>
	<text x="185" y="60" fill="#c51b7d" font-family="Verdana" font-size="12">0,N</text>
	<text x="272" y="137" fill="#c51b7d" font-family="Verdana" font-size="12">1,1</text>
</g>

<!-- Association REALISER -->
<g class="page_0_2ff0796f diagram_page" visibility="visible">
	<line x1="267" y1="170" x2="394" y2="170" stroke="#7fbc41" stroke-width="2"/>
	<line x1="535" y1="170" x2="394" y2="170" stroke="#7fbc41" stroke-width="2"/>
	<g>
		<path d="M418 145 a14 14 90 0 1 14 14 V170 h-76 V159 a14 14 90 0 1 14 -14" fill="#b8e186" stroke="#b8e186" stroke-width="0"/>
		<path d="M432 170 v11 a14 14 90 0 1 -14 14 H370 a14 14 90 0 1 -14 -14 V170 H76" fill="#e6f5d0" stroke="#e6f5d0" stroke-width="0"/>
		<rect x="356" y="145" width="76" height="50" fill="none" rx="14" stroke="#7fbc41" stroke-width="2"/>
		<line x1="356" y1="170" x2="432" y2="170" stroke="#7fbc41" stroke-width="1"/>
		<text x="364" y="162.75" fill="#000000" font-family="Verdana" font-size="12">REALISER</text>
	</g>
	<text x="329" y="187" fill="#c51b7d" font-family="Verdana" font-size="12">1,1</text>
	<line x1="329" y1="189" x2="350" y2="189" stroke="#c51b7d" stroke-width="1"/>
	<text x="437" y="187" fill="#c51b7d" font-family="Verdana" font-size="12">0,N</text>
</g>

<!-- Association RESERVER -->
<g class="page_0_2ff0796f diagram_page" visibility="visible">
	<line x1="141" y1="314" x2="267" y2="314" stroke="#7fbc41" stroke-width="2"/>
	<line x1="394" y1="314" x2="267" y2="314" stroke="#7fbc41" stroke-width="2"/>
	<line x1="267" y1="170" x2="267" y2="314" stroke="#7fbc41" stroke-width="2"/>
	<g>
		<path d="M293 289 a14 14 90 0 1 14 14 V314 h-80 V303 a14 14 90 0 1 14 -14" fill="#b8e186" stroke="#b8e186" stroke-width="0"/>
		<path d="M307 314 v11 a14 14 90 0 1 -14 14 H241 a14 14 90 0 1 -14 -14 V314 H80" fill="#e6f5d0" stroke="#e6f5d0" stroke-width="0"/>
		<rect x="227" y="289" width="80" height="50" fill="none" rx="14" stroke="#7fbc41" stroke-width="2"/>
		<line x1="227" y1="314" x2="307" y2="314" stroke="#7fbc41" stroke-width="1"/>
		<text x="235" y="306.75" fill="#000000" font-family="Verdana" font-size="12">RESERVER</text>
	</g>
	<text x="200" y="331" fill="#c51b7d" font-family="Verdana" font-size="12" onmouseover="show_2ff0796f(evt,'composée')" onmouseout="hide_2ff0796f(evt)" style="cursor: pointer;">0,N</text>
	<text x="329" y="331" fill="#c51b7d" font-family="Verdana" font-size="12" onmouseover="show_2ff0796f(evt,'composante')" onmouseout="hide_2ff0796f(evt)" style="cursor: pointer;">0,N</text>
	<text x="272" y="212" fill="#c51b7d" font-family="Verdana" font-size="12">0,N</text>
</g>

<!-- Entity MONITEUR -->
<g class="page_0_2ff0796f diagram_page" visibility="visible">
	<g>
		<rect x="102" y="9" width="78" height="25" fill="#f1b6da" stroke="none" stroke-width="0" opacity="1"/>
		<rect x="102" y="34" width="78" height="43" fill="#fde0ef" stroke="none" stroke-width="0" opacity="1"/>
		<rect x="102" y="9" width="78" height="68" fill="none" stroke="#de77ae" stroke-width="2" opacity="1"/>
		<line x1="102" y1="34" x2="180" y2="34" stroke="#de77ae" stroke-width="1"/>
	</g>
	<text x="108" y="26.75" fill="#000000" font-family="Verdana" font-size="12">MONITEUR</text>
	<text x="107" y="51.8" fill="#000000" font-family="Verdana" font-size="12">experience</text>
	<text x="107" y="68.8" fill="#000000" font-family="Verdana" font-size="12">salaire</text>
</g>

<!-- Entity PERSONNE -->
<g class="page_0_2ff0796f diagram_page" visibility="visible">
	<g>
		<rect x="9" y="102" width="78" height="25" fill="#f1b6da" stroke="none" stroke-width="0" opacity="1"/>
		<rect x="9" y="127" width="78" height="111" fill="#fde0ef" stroke="none" stroke-width="0" opacity="1"/>
		<rect x="9" y="102" width="78" height="136" fill="none" stroke="#de77ae" stroke-width="2" opacity="1"/>
		<line x1="9" y1="127" x2="87" y2="127" stroke="#de77ae" stroke-width="1"/>
	</g>
	<text x="15" y="119.75" fill="#000000" font-family="Verdana" font-size="12">PERSONNE</text>
	<text x="14" y="144.8" fill="#000000" font-family="Verdana" font-size="12">id_p</text>
	<line x1="14" y1="147" x2="41" y2="147" stroke="#000000" stroke-width="1"/>
	<text x="14" y="161.8" fill="#000000" font-family="Verdana" font-size="12">nom</text>
	<text x="14" y="178.8" fill="#000000" font-family="Verdana" font-size="12">prenom</text>
	<text x="14" y="195.8" fill="#000000" font-family="Verdana" font-size="12">adresse</text>
	<text x="14" y="212.8" fill="#000000" font-family="Verdana" font-size="12">telephone</text>
	<text x="14" y="229.8" fill="#000000" font-family="Verdana" font-size="12">email</text>
</g>

<!-- Entity COURS_REALISE -->
<g class="page_0_2ff0796f diagram_page" visibility="visible">
	<g>
		<rect x="210" y="145" width="114" height="25" fill="#f1b6da" stroke="none" stroke-width="0" opacity="1"/>
		<rect x="210" y="170" width="114" height="25" fill="#fde0ef" stroke="none" stroke-width="0" opacity="1"/>
		<rect x="210" y="145" width="114" height="50" fill="none" stroke="#de77ae" stroke-width="2" opacity="1"/>
		<line x1="210" y1="170" x2="324" y2="170" stroke="#de77ae" stroke-width="1"/>
	</g>
	<text x="215" y="162.75" fill="#000000" font-family="Verdana" font-size="12">COURS_REALISE</text>
	<text x="215" y="187.8" fill="#000000" font-family="Verdana" font-size="12">date_R</text>
	<line x1="215" y1="190" x2="259" y2="190" stroke="#000000" stroke-width="1" stroke-dasharray="4"/>
</g>

<!-- Entity COURS_PROGRAMME -->
<g class="page_0_2ff0796f diagram_page" visibility="visible">
	<g>
		<rect x="464" y="77" width="142" height="25" fill="#f1b6da" stroke="none" stroke-width="0" opacity="1"/>
		<rect x="464" y="102" width="142" height="161" fill="#fde0ef" stroke="none" stroke-width="0" opacity="1"/>
		<rect x="464" y="77" width="142" height="186" fill="none" stroke="#de77ae" stroke-width="2" opacity="1"/>
		<line x1="464" y1="102" x2="606" y2="102" stroke="#de77ae" stroke-width="1"/>
	</g>
	<text x="470" y="94.75" fill="#000000" font-family="Verdana" font-size="12">COURS_PROGRAMME</text>
	<text x="469" y="119.8" fill="#000000" font-family="Verdana" font-size="12">id_cp</text>
	<line x1="469" y1="122" x2="502" y2="122" stroke="#000000" stroke-width="1"/>
	<text x="469" y="136.8" fill="#000000" font-family="Verdana" font-size="12">nom_cours</text>
	<text x="469" y="153.8" fill="#000000" font-family="Verdana" font-size="12">niveau</text>
	<text x="469" y="170.8" fill="#000000" font-family="Verdana" font-size="12">duree</text>
	<text x="469" y="187.8" fill="#000000" font-family="Verdana" font-size="12">heure</text>
	<text x="469" y="204.8" fill="#000000" font-family="Verdana" font-size="12">jour</text>
	<text x="469" y="221.8" fill="#000000" font-family="Verdana" font-size="12">Ddd</text>
	<text x="469" y="238.8" fill="#000000" font-family="Verdana" font-size="12">Ddf</text>
	<text x="469" y="255.8" fill="#000000" font-family="Verdana" font-size="12">nb_personnes_max</text>
</g>

<!-- Entity CLIENT -->
<g class="page_0_2ff0796f diagram_page" visibility="visible">
	<g>
		<rect x="87" y="263" width="108" height="25" fill="#f1b6da" stroke="none" stroke-width="0" opacity="1"/>
		<rect x="87" y="288" width="108" height="77" fill="#fde0ef" stroke="none" stroke-width="0" opacity="1"/>
		<rect x="87" y="263" width="108" height="102" fill="none" stroke="#de77ae" stroke-width="2" opacity="1"/>
		<line x1="87" y1="288" x2="195" y2="288" stroke="#de77ae" stroke-width="1"/>
	</g>
	<text x="119" y="280.75" fill="#000000" font-family="Verdana" font-size="12">CLIENT</text>
	<text x="92" y="305.8" fill="#000000" font-family="Verdana" font-size="12">poids</text>
	<text x="92" y="322.8" fill="#000000" font-family="Verdana" font-size="12">cotisation</text>
	<text x="92" y="339.8" fill="#000000" font-family="Verdana" font-size="12">date_inscription</text>
	<text x="92" y="356.8" fill="#000000" font-family="Verdana" font-size="12">niveau</text>
</g>

<!-- Entity PONEY -->
<g class="page_0_2ff0796f diagram_page" visibility="visible">
	<g>
		<rect x="356" y="263" width="76" height="25" fill="#f1b6da" stroke="none" stroke-width="0" opacity="1"/>
		<rect x="356" y="288" width="76" height="77" fill="#fde0ef" stroke="none" stroke-width="0" opacity="1"/>
		<rect x="356" y="263" width="76" height="102" fill="none" stroke="#de77ae" stroke-width="2" opacity="1"/>
		<line x1="356" y1="288" x2="432" y2="288" stroke="#de77ae" stroke-width="1"/>
	</g>
	<text x="373" y="280.75" fill="#000000" font-family="Verdana" font-size="12">PONEY</text>
	<text x="361" y="305.8" fill="#000000" font-family="Verdana" font-size="12">id</text>
	<line x1="361" y1="308" x2="373" y2="308" stroke="#000000" stroke-width="1"/>
	<text x="361" y="322.8" fill="#000000" font-family="Verdana" font-size="12">nom</text>
	<text x="361" y="339.8" fill="#000000" font-family="Verdana" font-size="12">age</text>
	<text x="361" y="356.8" fill="#000000" font-family="Verdana" font-size="12">poids_max</text>
</g>

<!-- Notes -->
<script type="text/ecmascript">
<![CDATA[
	function show_2ff0796f(evt, text) {
		var pos = (evt.target.getAttribute("y") < 329) ? "bottom" : "top";
		var note = document.getElementById(pos + "_note_2ff0796f");
		note.textContent = text;
		note.setAttributeNS(null, "visibility", "visible");
		document.getElementById(pos + "_overlay_2ff0796f").setAttributeNS(null, "visibility", "visible");
	}
	function hide_2ff0796f(evt) {
		document.getElementById("top_note_2ff0796f").setAttributeNS(null, "visibility", "hidden");
		document.getElementById("top_overlay_2ff0796f").setAttributeNS(null, "visibility", "hidden");
		document.getElementById("bottom_note_2ff0796f").setAttributeNS(null, "visibility", "hidden");
		document.getElementById("bottom_overlay_2ff0796f").setAttributeNS(null, "visibility", "hidden");
	}
]]>
</script>
<rect id="top_overlay_2ff0796f" x="0" y="0" width="100%" height="40" fill="#4d9221" stroke-width="0" opacity="0.9" visibility="hidden"/>
<text id="top_note_2ff0796f" text-anchor="middle" x="307" y="24" fill="#f7f7f7" font-family="Verdana" font-size="14" visibility="hidden"></text>
<rect id="bottom_overlay_2ff0796f" x="0" y="334" width="100%" height="40" fill="#4d9221" stroke-width="0" opacity="0.9" visibility="hidden"/>
<text id="bottom_note_2ff0796f" text-anchor="middle" x="307" y="358" fill="#f7f7f7" font-family="Verdana" font-size="14" visibility="hidden"></text>
</svg>